Coordinates
version=1
nRows=14
nColumns=42
inDegrees=yes

Units are S.I. units (second, meters, Newtons, ...)
If the header above contains a line with 'inDegrees', this indicates whether rotational values are in degrees (yes) or radians (no).

endheader
time	pelvis_tilt	pelvis_list	pelvis_rotation	pelvis_tx	pelvis_ty	pelvis_tz	hip_flexion_r	hip_adduction_r	hip_rotation_r	knee_angle_r	knee_angle_r_beta	ankle_angle_r	subtalar_angle_r	mtp_angle_r	hip_flexion_l	hip_adduction_l	hip_rotation_l	knee_angle_l	knee_angle_l_beta	ankle_angle_l	subtalar_angle_l	mtp_angle_l	lumbar_extension	lumbar_bending	lumbar_rotation	sh_tx_r	sh_ty_r	sh_tz_r	sh_plane_elev_r	sh_elev_r	sh_axial_rot_r	elbow_flex_r	pro_sup_r	sh_tx_l	sh_ty_l	sh_tz_l	sh_plane_elev_l	sh_elev_l	sh_axial_rot_l	elbow_flex_l	pro_sup_l
      1.55000000	     -6.00479292	      0.25145365	      1.26639144	      0.27284686	      0.94057818	     -0.04087693	      2.39934562	     -7.66063793	    -10.50215261	      0.44937225	      0.00784303	      0.37320773	     -2.47181648	     -7.49999987	      3.06480866	     -3.36132436	    -12.52276562	      0.63582937	      0.01109732	      7.12239249	      4.74044625	     -7.49999987	      3.04959681	     -6.71094624	      6.49050943	     -0.00339256	     -0.00668210	     -0.00727827	     -3.67476278	    145.69866801	      3.97647302	     15.96694738	     12.42274929	      0.00083671	     -0.00029632	     -0.00698052	     64.10468888	     13.22239450	     -4.36104301	     11.68970823	     39.27430442
      1.56666670	     -6.06378199	      0.24155768	      1.30654543	      0.27278046	      0.94015111	     -0.04093529	      2.40514393	     -7.67296698	    -10.57212986	      0.46294364	      0.00807989	      0.42592664	     -2.42306389	     -7.49999987	      3.09168971	     -3.33315990	    -12.43054436	      0.67306999	      0.01174729	      7.24517493	      4.58563068	     -7.49999987	      3.21198764	     -6.51416376	      6.70562288	     -0.00258927	     -0.00529296	     -0.00720991	     -5.18253174	    146.67591295	      2.98742922	     15.81139003	     14.16497839	      0.00202814	     -0.00018740	     -0.00695203	     62.88120177	     12.90799570	     -4.29257380	     12.39892125	     40.12464823
      1.58333330	     -6.16797280	      0.28257789	      1.38548015	      0.26845616	      0.94332818	     -0.04509625	      2.48920139	     -7.78625515	    -10.70942069	      0.48291902	      0.00842853	      0.42683718	     -2.39775681	     -7.49999987	      3.24216981	     -3.21487791	    -12.26541072	      0.70935532	      0.01238059	      7.33181473	      4.41923314	     -7.49999987	      3.22630674	     -6.48513309	      6.53678354	     -0.00332404	     -0.00438494	     -0.00717468	     -5.27027559	    147.06099087	      0.88277757	     14.58904933	     13.41557226	      0.00171946	     -0.00045654	     -0.00700776	     63.31693032	     12.88212488	     -4.27410676	     12.44529196	     40.14788481
      1.60000000	     -6.21724771	      0.26700744	      1.39010809	      0.26439185	      0.94273492	     -0.04033844	      2.62722089	     -7.74621824	    -10.58769870	      0.49191373	      0.00858551	      0.46305092	     -2.46144203	     -7.49999987	      3.37311182	     -3.21459705	    -12.15143426	      0.71139741	      0.01241623	      7.39900149	      4.33637126	     -7.49999987	      3.24878134	     -6.41866473	      6.31813348	     -0.00239934	     -0.00411407	     -0.00712922	     -5.56409560	    147.85267690	      0.83271916	     13.98251616	     13.30466597	      0.00213791	     -0.00040958	     -0.00699502	     63.32495256	     12.92432667	     -4.33692200	     12.36505824	     40.05281391
      1.61666670	     -6.25157011	      0.25778114	      1.42468814	      0.26462617	      0.94282270	     -0.04020928	      2.74027808	     -7.71315347	    -10.53497446	      0.50260377	      0.00877209	      0.37962508	     -2.56947663	     -7.49999987	      3.51779419	     -3.21840505	    -11.97660211	      0.73681231	      0.01285980	      7.31341516	      4.26803399	     -7.49999987	      3.22704098	     -6.37255445	      6.17217772	     -0.00148386	     -0.00495693	     -0.00711516	     -5.80594089	    148.86086758	      0.51942942	     12.88255485	     13.08814302	      0.00260636	     -0.00096314	     -0.00691866	     63.34655781	     13.02375365	     -4.38804644	     12.44979083	     39.93869926
      1.63333330	     -6.18746355	      0.24120662	      1.39464340	      0.26443793	      0.94236135	     -0.04028004	      2.77710102	     -7.67390658	    -10.41720038	      0.51904597	      0.00905906	      0.30660977	     -2.71522073	     -7.49999987	      3.53698040	     -3.24089272	    -11.86519482	      0.74936692	      0.01307892	      7.28054417	      4.10708510	     -7.49999987	      3.03081300	     -6.34715074	      6.14753776	     -0.00340355	     -0.00458575	     -0.00711495	     -5.38098851	    149.91719838	     -1.72630105	     10.46649125	     12.82249862	      0.00266061	     -0.00092279	     -0.00693764	     63.32614640	     13.21995655	     -4.45633572	     12.78866715	     39.68188377
      1.65000000	     -6.19961750	      0.22696796	      1.35883066	      0.26473849	      0.93933719	     -0.04026778	      2.83593719	     -7.62491144	    -10.33099758	      0.50803762	      0.00886693	      0.35280498	     -2.75719253	     -7.49999987	      3.63789389	     -3.27787874	    -11.83753439	      0.79064997	      0.01379945	      7.24264912	      4.08076517	     -7.49999987	      3.07428028	     -6.24128846	      5.98928731	     -0.00234348	     -0.00309836	     -0.00705092	     -5.54967596	    151.04521185	     -1.81587012	      9.59335722	     12.64740569	      0.00298618	     -0.00073884	     -0.00690734	     63.32527815	     13.17814132	     -4.52845326	     12.63904471	     39.51975991
      1.66666670	     -6.17204153	      0.25652044	      1.36579551	      0.26874619	      0.93896829	     -0.04507205	      2.76837641	     -7.71502080	    -10.40180356	      0.52762008	      0.00920871	      0.29953124	     -2.80712133	     -7.49999987	      3.62963908	     -3.22034366	    -11.80368199	      0.84827689	      0.01480522	      7.23357705	      4.06322302	     -7.49999987	      3.16528794	     -6.15523510	      5.71004514	     -0.00219947	     -0.00159344	     -0.00702324	     -5.88528394	    152.04258156	     -1.86208676	      9.02540507	     12.54477483	      0.00264690	     -0.00011480	     -0.00694458	     63.34735055	     12.92410068	     -4.60419874	     12.52086938	     39.35181528
      1.68333330	     -6.06944598	      0.24507887	      1.28818115	      0.26943165	      0.93948242	     -0.03576795	      2.63303777	     -7.63242846	    -10.28233955	      0.53615238	      0.00935762	      0.40696984	     -2.84497788	     -7.49999987	      3.48867477	     -3.30896851	    -11.80266059	      0.89517458	      0.01562374	      7.22949309	      3.94757955	     -7.49999987	      3.06278262	     -6.18088401	      5.43046145	     -0.00228442	     -0.00013103	     -0.00706175	     -6.85696243	    152.92668069	     -1.76748081	      9.34882704	     12.67623253	      0.00073428	      0.00090724	     -0.00681031	     62.81716369	     12.96816087	     -4.76437833	     12.27412758	     39.07448194
      1.70000000	     -6.03170628	      0.29055762	      1.24792008	      0.27330879	      0.94220017	     -0.04043254	      2.47753338	     -7.67126260	    -10.45768526	      0.53799084	      0.00938971	      0.39418249	     -2.69453828	     -7.49999987	      3.35110218	     -3.29586762	    -11.91598369	      0.94953194	      0.01657246	      7.17901318	      4.08443754	     -7.49999987	      3.06471082	     -6.20883553	      6.73942325	     -0.00120811	      0.00061357	     -0.00691139	    -15.40799655	    154.20998775	     -2.18578741	     13.69664881	     10.24422969	      0.00317059	      0.00115595	     -0.00688383	     62.93429922	     12.87094801	     -3.46340880	     12.60896672	     37.62860182
      1.71666670	     -6.03963534	      0.28885179	      1.17235958	      0.27360203	      0.93926989	     -0.04040563	      2.35704548	     -7.64419306	    -10.50065951	      0.50879129	      0.00888008	      0.43242003	     -2.72649849	     -7.49999987	      3.21939586	     -3.30338848	    -12.01016789	      0.94703218	      0.01652883	      7.25252468	      4.03492869	     -7.49999987	      3.28137284	     -6.39424573	      6.63411111	     -0.00361665	      0.00153291	     -0.00698447	    -15.53999437	    154.44072575	     -2.15746443	     13.55617111	     10.21667208	      0.00181465	      0.00255463	     -0.00684107	     62.93054901	     12.73234885	     -3.48641393	     12.51319194	     37.60818637
      1.73333330	     -6.14716942	      0.30204945	      1.04132193	      0.27339418	      0.93873135	     -0.04049559	      2.40262071	     -7.64516823	    -10.40814955	      0.49930343	      0.00871449	      0.37872652	     -2.77951806	     -7.49999987	      3.21805381	     -3.29045112	    -12.16938934	      0.96108513	      0.01677410	      7.32821187	      4.01946988	     -7.49999987	      3.73634831	     -6.12818434	      6.39648830	     -0.00081174	      0.00237145	     -0.00689007	    -17.44554841	    155.87673344	     -2.04630104	     13.85070581	     12.47599268	      0.00292070	      0.00245656	     -0.00686214	     61.65426693	     12.11063784	     -3.67965476	     12.28499425	     38.14484880
      1.75000000	     -6.09664549	      0.31595788	      0.98763614	      0.27344265	      0.93908828	     -0.04031445	      2.24667151	     -7.65398629	    -10.33455402	      0.46831057	      0.00817356	      0.53194334	     -2.66881400	     -7.49999987	      3.06136283	     -3.28519355	    -12.20615178	      0.93683811	      0.01635091	      7.41622588	      4.07720533	     -7.49999987	      3.65746319	     -6.01572926	      6.86762592	     -0.00051785	      0.00360066	     -0.00672016	    -22.70403264	    157.06255956	     -2.51041954	     15.85673872	      8.50471890	      0.00353039	      0.00232637	     -0.00682584	     62.03206731	     12.16128881	     -3.67885947	     12.42109388	     37.95669230
      1.76666670	     -6.16383991	      0.32936058	      0.87996953	      0.27313429	      0.93859615	     -0.04042767	      2.26843724	     -7.67386639	    -10.20085664	      0.44468465	      0.00776121	      0.57077883	     -2.63891073	     -7.49999987	      3.03854312	     -3.27350027	    -12.31766836	      0.87914940	      0.01534405	      7.48632037	      4.14118796	     -7.49999987	      3.87263419	     -5.98631044	      6.88315694	     -0.00116812	      0.00444439	     -0.00670480	    -22.92125938	    157.56245452	     -3.39573515	     14.97219466	      9.29344679	      0.00353994	      0.00244961	     -0.00687108	     61.87008359	     12.05573534	     -3.46281420	     12.38744932	     38.36727560
